<?xml version="1.0" encoding="iso-8859-1"?>
<!-- Generator: Adobe Illustrator 20.1.0, SVG Export Plug-In . SVG Version: 6.00 Build 0)  -->
<svg xmlns="http://www.w3.org/2000/svg" xmlns:xlink="http://www.w3.org/1999/xlink" version="1.1" id="&#1057;&#1083;&#1086;&#1081;_1" x="0px" y="0px" viewBox="0 0 64 64" style="enable-background:new 0 0 64 64;" xml:space="preserve">
<linearGradient id="SVGID_1__52518" gradientUnits="userSpaceOnUse" x1="32" y1="19.8333" x2="32" y2="48.3377" spreadMethod="reflect">
	<stop offset="0" style="stop-color:#6DC7FF"/>
	<stop offset="1" style="stop-color:#E6ABFF"/>
</linearGradient>
<path style="fill:url(#SVGID_1__52518);" d="M54,48H10V20h44V48z M12,46h40V22H12V46z"/>
<linearGradient id="SVGID_2__52518" gradientUnits="userSpaceOnUse" x1="32" y1="7.5" x2="32" y2="56.456" spreadMethod="reflect">
	<stop offset="0" style="stop-color:#1A6DFF"/>
	<stop offset="1" style="stop-color:#C822FF"/>
</linearGradient>
<path style="fill:url(#SVGID_2__52518);" d="M55,8H9c-1.654,0-3,1.346-3,3v38c0,1.654,1.346,3,3,3h46c1.654,0,3-1.346,3-3V11  C58,9.346,56.654,8,55,8z M9,10h46c0.552,0,1,0.448,1,1v5H8v-5C8,10.448,8.448,10,9,10z M55,50H9c-0.552,0-1-0.448-1-1V18h48v31  C56,49.552,55.552,50,55,50z"/>
<linearGradient id="SVGID_3__52518" gradientUnits="userSpaceOnUse" x1="32" y1="7.5" x2="32" y2="56.456" spreadMethod="reflect">
	<stop offset="0" style="stop-color:#1A6DFF"/>
	<stop offset="1" style="stop-color:#C822FF"/>
</linearGradient>
<rect x="8" y="54" style="fill:url(#SVGID_3__52518);" width="48" height="2"/>
<linearGradient id="SVGID_4__52518" gradientUnits="userSpaceOnUse" x1="15" y1="7.5" x2="15" y2="56.456" spreadMethod="reflect">
	<stop offset="0" style="stop-color:#1A6DFF"/>
	<stop offset="1" style="stop-color:#C822FF"/>
</linearGradient>
<rect x="10" y="12" style="fill:url(#SVGID_4__52518);" width="10" height="2"/>
<linearGradient id="SVGID_5__52518" gradientUnits="userSpaceOnUse" x1="24" y1="7.5" x2="24" y2="56.456" spreadMethod="reflect">
	<stop offset="0" style="stop-color:#1A6DFF"/>
	<stop offset="1" style="stop-color:#C822FF"/>
</linearGradient>
<rect x="22" y="12" style="fill:url(#SVGID_5__52518);" width="4" height="2"/>
<linearGradient id="SVGID_6__52518" gradientUnits="userSpaceOnUse" x1="52" y1="7.5" x2="52" y2="56.456" spreadMethod="reflect">
	<stop offset="0" style="stop-color:#1A6DFF"/>
	<stop offset="1" style="stop-color:#C822FF"/>
</linearGradient>
<rect x="50" y="12" style="fill:url(#SVGID_6__52518);" width="4" height="2"/>
<linearGradient id="SVGID_7__52518" gradientUnits="userSpaceOnUse" x1="46" y1="7.5" x2="46" y2="56.456" spreadMethod="reflect">
	<stop offset="0" style="stop-color:#1A6DFF"/>
	<stop offset="1" style="stop-color:#C822FF"/>
</linearGradient>
<rect x="44" y="12" style="fill:url(#SVGID_7__52518);" width="4" height="2"/>
<linearGradient id="SVGID_8__52518" gradientUnits="userSpaceOnUse" x1="31.9839" y1="7.5" x2="31.9839" y2="56.456" spreadMethod="reflect">
	<stop offset="0" style="stop-color:#1A6DFF"/>
	<stop offset="1" style="stop-color:#C822FF"/>
</linearGradient>
<path style="fill:url(#SVGID_8__52518);" d="M16.999,31.766l4.016,2.264h0.001c0.309,0.174,0.646,0.261,0.982,0.261  c0.348,0,0.695-0.093,1.011-0.276C23.629,33.65,24,33.004,24,32.285V31h24v-2H24v-1.285c0-0.719-0.371-1.365-0.991-1.729  c-0.621-0.361-1.367-0.368-1.994-0.016l-4.016,2.264c-0.636,0.358-1.031,1.035-1.031,1.766S16.363,31.407,16.999,31.766z M22,27.715  v4.574l-0.004-0.002l-4.014-2.311L22,27.715z"/>
<linearGradient id="SVGID_9__52518" gradientUnits="userSpaceOnUse" x1="32.0161" y1="7.5" x2="32.0161" y2="56.456" spreadMethod="reflect">
	<stop offset="0" style="stop-color:#1A6DFF"/>
	<stop offset="1" style="stop-color:#C822FF"/>
</linearGradient>
<path style="fill:url(#SVGID_9__52518);" d="M47.001,37.234l-4.014-2.263c-0.628-0.353-1.373-0.349-1.995,0.016  C40.371,35.351,40,35.997,40,36.717V38H16v2h24v1.283c0,0.72,0.371,1.366,0.992,1.729c0.316,0.185,0.663,0.276,1.011,0.276  c0.338,0,0.675-0.087,0.984-0.261l4.014-2.263c0.636-0.358,1.031-1.035,1.031-1.766S47.637,37.593,47.001,37.234z M42.005,41.286  l0.491,0.871L42,41.283l0.005-4.569l4.014,2.31L42.005,41.286z"/>
</svg>
